<?xml version="1.0" encoding="utf-8"?>
<!-- Generator: Adobe Illustrator 16.0.0, SVG Export Plug-In . SVG Version: 6.00 Build 0)  -->
<!DOCTYPE svg PUBLIC "-//W3C//DTD SVG 1.1//EN" "http://www.w3.org/Graphics/SVG/1.1/DTD/svg11.dtd">
<svg version="1.1" id="Ebene_1" xmlns="http://www.w3.org/2000/svg" xmlns:xlink="http://www.w3.org/1999/xlink" x="0px" y="0px"
	 width="174.5px" height="75px" viewBox="0 0 174.5 75" enable-background="new 0 0 174.5 75" xml:space="preserve">
<g id="Ebene_1_1_">
	<path fill="none" stroke="#FF0000" stroke-miterlimit="10" d="M137.139,2.199c-0.046,0-0.091,0.003-0.136,0.003h-82.76
		c-0.045,0-0.09-0.003-0.135-0.003s-0.09,0.003-0.135,0.003h-0.236v0.006c-13.466,0.14-25.128,7.784-31.01,18.948
		c-1.307-0.322-2.666-0.511-4.072-0.511c-9.394,0-17.008,7.614-17.008,17.008s7.614,17.008,17.008,17.008
		c1.406,0,2.766-0.188,4.073-0.511c5.883,11.162,17.544,18.808,31.008,18.945v0.01h83.403c19.579,0,35.452-15.873,35.452-35.454
		C172.591,18.072,156.718,2.199,137.139,2.199z M18.654,46.156c-4.696,0-8.504-3.809-8.504-8.504s3.808-8.504,8.504-8.504
		c4.696,0,8.504,3.808,8.504,8.504S23.351,46.156,18.654,46.156z"/>
</g>
<g id="Ebene_2">
	<path fill="#D9D9D9" d="M84.578,18.519l19.475-12.373l5.002,4.406L90.197,23.617L84.578,18.519z M99.164,19.465l4.658-3.294
		l5.277,4.698l-4.5,3.469L99.164,19.465z M110.125,66.486l-25.49-23.68l5.959-4.713l24.629,22.656L110.125,66.486z M107.102,50.917
		l-6.106-5.604l5.134-4.627l5.909,5.375L107.102,50.917z M133.016,12.1l19.098,16.505l-2.665,3.281L129.832,14.84L133.016,12.1z
		 M136.367,21.898l4.934,4.295l-3.082,3.311l-5.074-4.442L136.367,21.898z M145.775,65.715l12.015-18.488l-5.263-4.607
		l-12.709,17.734L145.775,65.715z M143.639,51.932l3.203-4.371l-5.438-4.81l-3.375,4.188L143.639,51.932z M98.331,31.51
		l17.358-13.672l5.166,4.559L108.809,32.75l16.151,14.546l-4.168,4.604L98.331,31.51z M144.393,36.417l-19.604-17.186l-3.713,3.197
		l14.98,13.215L125.52,47.335l5.672,5.104L144.393,36.417z"/>
	<g>
		<path fill="#3C3C3B" d="M49.788,21.407v0.865H47.25v-0.797c0.019-0.625-0.124-1.014-0.43-1.166
			c-0.191-0.095-0.651-0.142-1.378-0.142h-3.186c-0.938,0-1.407,0.338-1.407,1.015v2.987c0,0.483,0.192,0.792,0.577,0.928
			c0.211,0.077,0.615,0.116,1.211,0.116h3.258v2.191h-3.258c-0.596,0-1,0.029-1.211,0.086c-0.384,0.154-0.577,0.471-0.577,0.952
			v6.141h-2.538v-6.556c0-0.385,0.125-0.751,0.375-1.098c0.25-0.347,0.558-0.568,0.924-0.665c-0.867-0.346-1.299-0.924-1.299-1.733
			V20.66c0-0.75,0.077-1.299,0.232-1.646c0.326-0.712,1.335-1.06,3.027-1.041h4.326c1.749,0,2.826,0.154,3.23,0.462
			C49.567,18.802,49.788,19.792,49.788,21.407z"/>
		<path fill="#3C3C3B" d="M63.08,31.898c0,0.731-0.076,1.27-0.23,1.617c-0.307,0.713-1.269,1.068-2.885,1.068h-5.247
			c-1.615,0-2.576-0.355-2.884-1.066c-0.154-0.346-0.23-0.884-0.23-1.614v-3.98c0-0.769,0.086-1.316,0.26-1.643
			c0.229-0.423,0.765-0.683,1.608-0.779c0.268-0.039,0.899-0.057,1.897-0.057h5.172v-4.268c0-0.672-0.476-1.009-1.428-1.009h-3.172
			c-0.933,0-1.486,0.134-1.657,0.403c-0.096,0.155-0.143,0.731-0.143,1.729h-2.538V20.79c0-0.813,0.076-1.393,0.23-1.741
			c0.308-0.716,1.269-1.075,2.884-1.075h5.247c1.616,0,2.578,0.356,2.885,1.069c0.154,0.347,0.23,0.886,0.23,1.617L63.08,31.898
			L63.08,31.898z M60.542,27.404H55.52c-0.939,0-1.407,0.344-1.407,1.032v2.924c0,0.688,0.498,1.033,1.491,1.033h3.446
			c0.994,0,1.492-0.345,1.492-1.033V27.404z"/>
		<path fill="#3C3C3B" d="M76.373,31.903c0,0.749-0.077,1.297-0.229,1.643c-0.309,0.691-1.27,1.038-2.886,1.038H68.04
			c-1.634,0-2.605-0.346-2.912-1.039c-0.155-0.346-0.231-0.896-0.231-1.646v-3.871c0-0.791,0.442-1.358,1.327-1.705
			c-0.884-0.347-1.327-0.944-1.327-1.791v-6.557h2.538v6.167c0,0.502,0.192,0.819,0.577,0.956c0.211,0.058,0.616,0.087,1.212,0.087
			h3.834c1.749,0,2.778,0.365,3.087,1.096c0.153,0.366,0.229,0.913,0.229,1.643L76.373,31.903L76.373,31.903z M73.835,31.384v-2.97
			c0-0.692-0.498-1.038-1.492-1.038h-3.445c-0.976,0-1.464,0.346-1.464,1.038v2.97c0,0.672,0.488,1.009,1.464,1.009h3.445
			C73.337,32.393,73.835,32.056,73.835,31.384z"/>
		<path fill="#3C3C3B" d="M89.665,31.787c0,0.808-0.077,1.384-0.229,1.73c-0.308,0.711-1.27,1.066-2.885,1.066h-5.218
			c-1.615,0-2.586-0.355-2.912-1.068c-0.154-0.347-0.23-0.886-0.23-1.617V17.975h2.537v13.379c0,0.692,0.479,1.039,1.437,1.039
			h3.157c0.937,0,1.492-0.133,1.665-0.398c0.095-0.152,0.143-0.72,0.143-1.707h2.537v1.499H89.665z"/>
		<path fill="#3C3C3B" d="M102.957,31.898c0,0.731-0.075,1.27-0.229,1.617c-0.308,0.713-1.27,1.068-2.883,1.068h-5.248
			c-1.617,0-2.576-0.355-2.885-1.066c-0.154-0.346-0.23-0.884-0.23-1.614v-3.98c0-0.769,0.084-1.316,0.259-1.643
			c0.229-0.423,0.766-0.683,1.608-0.779c0.269-0.039,0.901-0.057,1.898-0.057h5.173v-4.268c0-0.672-0.478-1.009-1.429-1.009H95.82
			c-0.934,0-1.486,0.134-1.658,0.403c-0.096,0.155-0.145,0.731-0.145,1.729H91.48V20.79c0-0.813,0.078-1.393,0.231-1.741
			c0.308-0.716,1.269-1.075,2.884-1.075h5.248c1.614,0,2.576,0.356,2.883,1.069c0.154,0.347,0.229,0.886,0.229,1.617L102.957,31.898
			L102.957,31.898z M100.421,27.404h-5.024c-0.938,0-1.405,0.344-1.405,1.032v2.924c0,0.688,0.497,1.033,1.491,1.033h3.447
			c0.994,0,1.491-0.345,1.491-1.033V27.404z"/>
		<path fill="#3C3C3B" d="M116.25,31.903c0,0.749-0.077,1.297-0.23,1.643c-0.308,0.691-1.269,1.038-2.883,1.038h-5.22
			c-1.634,0-2.604-0.346-2.913-1.039c-0.154-0.346-0.23-0.896-0.23-1.646v-3.871c0-0.791,0.441-1.358,1.326-1.705
			c-0.885-0.347-1.326-0.944-1.326-1.791v-6.557h2.539v6.167c0,0.502,0.19,0.819,0.576,0.956c0.211,0.058,0.613,0.087,1.209,0.087
			h3.834c1.75,0,2.779,0.365,3.088,1.096c0.152,0.366,0.229,0.913,0.229,1.643L116.25,31.903L116.25,31.903z M113.713,31.384v-2.97
			c0-0.692-0.498-1.038-1.492-1.038h-3.445c-0.976,0-1.463,0.346-1.463,1.038v2.97c0,0.672,0.487,1.009,1.463,1.009h3.445
			C113.215,32.393,113.713,32.056,113.713,31.384z"/>
	</g>
	<g>
		<path fill="#3C3C3B" d="M49.786,41.518v3.99c0,0.733-0.077,1.283-0.229,1.648c-0.212,0.502-0.731,0.83-1.558,0.984
			c-0.365,0.076-1.019,0.115-1.961,0.115h-3.776c-0.942,0-1.413,0.346-1.413,1.038v6.142h-2.537v-6.557
			c0-0.848,0.44-1.443,1.325-1.791c-0.885-0.348-1.325-0.915-1.325-1.705v-3.869c0-0.752,0.077-1.3,0.229-1.646
			c0.308-0.692,1.269-1.041,2.885-1.041h5.247c1.615,0,2.575,0.348,2.884,1.042C49.709,40.216,49.786,40.766,49.786,41.518z
			 M47.25,45.02v-2.985c0-0.677-0.499-1.015-1.494-1.015h-3.444c-0.976,0-1.464,0.338-1.464,1.015v2.985
			c0,0.697,0.488,1.045,1.464,1.045h3.444C46.751,46.064,47.25,45.717,47.25,45.02z"/>
		<path fill="#3C3C3B" d="M63.079,55.436h-2.538v-7.209H54.14v7.209h-2.538V41.514c0-0.732,0.077-1.271,0.23-1.617
			c0.308-0.713,1.268-1.069,2.884-1.069h5.276c1.615,0,2.576,0.356,2.884,1.069c0.135,0.347,0.202,0.885,0.202,1.617L63.079,55.436
			L63.079,55.436z M60.542,46.036v-4.009c0-0.672-0.498-1.008-1.492-1.008h-3.445c-0.976,0-1.464,0.336-1.464,1.008v4.009H60.542z"
			/>
		<path fill="#3C3C3B" d="M76.371,52.75c0,0.73-0.067,1.271-0.202,1.618c-0.308,0.712-1.316,1.067-3.028,1.067h-8.246V38.827h8.218
			c1.69,0,2.691,0.327,2.998,0.981c0.173,0.366,0.26,0.926,0.26,1.676V52.75z M73.834,52.208V42.025
			c0-0.672-0.499-1.008-1.493-1.008h-4.908v12.227h4.994C73.366,53.244,73.834,52.898,73.834,52.208z"/>
		<path fill="#3C3C3B" d="M89.663,42.259v0.865h-2.537v-0.797c0.019-0.625-0.124-1.015-0.431-1.166
			c-0.192-0.095-0.651-0.142-1.377-0.142h-3.157c-0.957,0-1.436,0.338-1.436,1.015v2.985c0,0.483,0.191,0.793,0.577,0.928
			c0.211,0.08,0.615,0.117,1.21,0.117h3.26v2.19h-3.26c-0.595,0-0.999,0.029-1.21,0.086c-0.385,0.153-0.577,0.47-0.577,0.946v2.924
			c0,0.688,0.479,1.032,1.436,1.032h3.157c0.937,0,1.492-0.132,1.664-0.397c0.096-0.152,0.144-0.722,0.144-1.707h2.537v1.498
			c0,0.809-0.076,1.395-0.229,1.76c-0.308,0.691-1.27,1.037-2.884,1.037h-5.219c-1.614,0-2.584-0.347-2.913-1.039
			c-0.153-0.347-0.23-0.896-0.23-1.646v-3.871c0-0.385,0.125-0.751,0.375-1.098c0.25-0.346,0.557-0.568,0.922-0.664
			c-0.865-0.346-1.297-0.924-1.297-1.733v-3.87c0-0.75,0.077-1.299,0.23-1.646c0.328-0.714,1.336-1.06,3.028-1.041h4.326
			c1.748,0,2.826,0.153,3.229,0.461C89.443,39.654,89.663,40.645,89.663,42.259z"/>
		<path fill="#3C3C3B" d="M102.957,55.436h-2.538v-6.142c0-0.692-0.517-1.038-1.55-1.038h-4.852v7.18H91.48V41.514
			c0-0.771,0.086-1.338,0.26-1.705c0.326-0.654,1.289-0.981,2.883-0.981h5.189c1.617,0,2.578,0.327,2.885,0.981
			c0.173,0.366,0.26,0.935,0.26,1.705v3.87c0,0.79-0.443,1.358-1.327,1.705c0.884,0.347,1.327,0.944,1.327,1.791V55.436
			L102.957,55.436z M100.419,45.02v-2.985c0-0.677-0.498-1.015-1.493-1.015h-3.443c-0.977,0-1.465,0.338-1.465,1.015v4.03h4.996
			C99.95,46.064,100.419,45.717,100.419,45.02z"/>
		<path fill="#3C3C3B" d="M116.249,48.879v3.871c0,0.73-0.077,1.271-0.229,1.618c-0.309,0.712-1.309,1.067-3,1.067h-8.246V38.827
			h8.246c1.691,0,2.691,0.348,3,1.041c0.152,0.347,0.229,0.886,0.229,1.616v3.899c0,0.79-0.384,1.368-1.153,1.733
			C115.863,47.464,116.249,48.051,116.249,48.879z M113.712,44.998v-2.971c0-0.672-0.499-1.008-1.493-1.008h-4.908v5.017h4.994
			C113.243,46.036,113.712,45.689,113.712,44.998z M113.712,52.207v-2.941c0-0.691-0.499-1.039-1.493-1.039h-4.908v5.019h4.994
			C113.243,53.244,113.712,52.898,113.712,52.207z"/>
		<path fill="#3C3C3B" d="M129.57,52.75c0,0.73-0.068,1.271-0.202,1.618c-0.308,0.712-1.269,1.067-2.886,1.067h-5.275
			c-1.614,0-2.576-0.355-2.883-1.067c-0.155-0.347-0.231-0.888-0.231-1.618V41.484c0-0.75,0.087-1.31,0.261-1.676
			c0.326-0.654,1.287-0.981,2.883-0.981h5.19c1.614,0,2.576,0.327,2.884,0.981c0.172,0.366,0.26,0.926,0.26,1.676V52.75z
			 M127.033,52.208V42.025c0-0.672-0.499-1.008-1.493-1.008h-3.444c-0.976,0-1.464,0.336-1.464,1.008v10.183
			c0,0.69,0.488,1.036,1.464,1.036h3.444C126.534,53.244,127.033,52.898,127.033,52.208z"/>
		<path fill="#3C3C3B" d="M143.035,55.436h-2.538v-6.142c0-0.692-0.517-1.038-1.55-1.038h-4.85v7.18h-2.539V41.514
			c0-0.771,0.088-1.338,0.26-1.705c0.328-0.654,1.287-0.981,2.884-0.981h5.19c1.615,0,2.575,0.327,2.883,0.981
			c0.174,0.366,0.26,0.935,0.26,1.705v3.87c0,0.79-0.442,1.358-1.325,1.705c0.883,0.347,1.325,0.944,1.325,1.791V55.436
			L143.035,55.436z M140.497,45.02v-2.985c0-0.677-0.497-1.015-1.492-1.015h-3.444c-0.976,0-1.463,0.338-1.463,1.015v4.03h4.995
			C140.029,46.064,140.497,45.717,140.497,45.02z"/>
		<path fill="#3C3C3B" d="M156.328,55.436h-2.51l-6.43-11.563v11.563h-2.537V38.827h2.537l6.43,11.218l-0.028-11.218h2.537
			L156.328,55.436L156.328,55.436z"/>
	</g>
</g>
</svg>
