<?xml version="1.0" encoding="utf-8"?>
<!-- Generator: Adobe Illustrator 16.0.0, SVG Export Plug-In . SVG Version: 6.00 Build 0)  -->
<!DOCTYPE svg PUBLIC "-//W3C//DTD SVG 1.1//EN" "http://www.w3.org/Graphics/SVG/1.1/DTD/svg11.dtd">
<svg version="1.1" xmlns="http://www.w3.org/2000/svg" xmlns:xlink="http://www.w3.org/1999/xlink" x="0px" y="0px" width="174.5px"
	 height="75px" viewBox="0 0 174.5 75" enable-background="new 0 0 174.5 75" xml:space="preserve">
<g id="Ebene_1">
	<path fill="none" stroke="#FF0000" stroke-miterlimit="10" d="M137.138,2.199c-0.045,0-0.09,0.003-0.135,0.003h-82.76
		c-0.045,0-0.09-0.003-0.135-0.003s-0.09,0.003-0.135,0.003h-0.236v0.006C40.271,2.348,28.609,9.992,22.727,21.156
		c-1.307-0.322-2.666-0.511-4.072-0.511c-9.394,0-17.008,7.614-17.008,17.008s7.614,17.008,17.008,17.008
		c1.406,0,2.766-0.189,4.073-0.511c5.883,11.163,17.544,18.808,31.008,18.946v0.009h83.402c19.58,0,35.453-15.873,35.453-35.453
		C172.591,18.072,156.718,2.199,137.138,2.199z M18.654,46.156c-4.696,0-8.504-3.808-8.504-8.504s3.808-8.504,8.504-8.504
		s8.504,3.808,8.504,8.504S23.351,46.156,18.654,46.156z"/>
</g>
<g id="Ebene_2">
	<path fill-rule="evenodd" clip-rule="evenodd" fill="#D9D9D9" d="M82.578,19.519l19.475-12.373l5.002,4.406L88.198,24.617
		L82.578,19.519z M97.164,20.465l4.658-3.294l5.277,4.698l-4.499,3.469L97.164,20.465z M108.125,67.487l-25.49-23.68l5.959-4.713
		l24.628,22.656L108.125,67.487z M105.102,51.917l-6.107-5.605l5.134-4.627l5.909,5.375L105.102,51.917z M131.016,13.1
		l19.097,16.505l-2.665,3.281L127.832,15.84L131.016,13.1z M134.367,22.898l4.934,4.295l-3.082,3.311l-5.074-4.442L134.367,22.898z
		 M143.775,66.715l12.015-18.488l-5.262-4.608l-12.709,17.734L143.775,66.715z M141.638,52.931l3.204-4.37l-5.437-4.81l-3.375,4.188
		L141.638,52.931z M96.331,32.51l17.358-13.672l5.166,4.559L106.808,33.75l16.152,14.546l-4.168,4.605L96.331,32.51z
		 M142.393,37.417l-19.604-17.186l-3.713,3.197l14.98,13.215L123.52,48.335l5.672,5.104L142.393,37.417z"/>
	<g>
		<path fill="#3C3C3B" d="M47.788,21.407v0.865H45.25v-0.797c0.019-0.625-0.124-1.014-0.43-1.166
			c-0.191-0.095-0.651-0.142-1.378-0.142h-3.186c-0.938,0-1.407,0.338-1.407,1.015v2.987c0,0.483,0.192,0.792,0.577,0.928
			c0.211,0.077,0.615,0.116,1.211,0.116h3.258v2.191h-3.258c-0.596,0-1,0.029-1.211,0.086c-0.384,0.154-0.577,0.471-0.577,0.952
			v6.141h-2.538v-6.556c0-0.385,0.125-0.751,0.375-1.098c0.25-0.347,0.558-0.568,0.924-0.665c-0.867-0.346-1.299-0.924-1.299-1.733
			v-3.871c0-0.75,0.077-1.299,0.232-1.646c0.326-0.712,1.335-1.06,3.027-1.041h4.326c1.749,0,2.826,0.154,3.23,0.462
			C47.567,18.802,47.788,19.792,47.788,21.407z"/>
		<path fill="#3C3C3B" d="M61.08,31.898c0,0.731-0.076,1.27-0.23,1.617c-0.307,0.713-1.269,1.068-2.885,1.068h-5.247
			c-1.615,0-2.576-0.355-2.884-1.066c-0.154-0.346-0.23-0.884-0.23-1.614v-3.98c0-0.769,0.086-1.316,0.26-1.643
			c0.229-0.423,0.765-0.683,1.608-0.779c0.268-0.039,0.899-0.057,1.897-0.057h5.172v-4.268c0-0.672-0.476-1.009-1.428-1.009h-3.172
			c-0.933,0-1.486,0.134-1.657,0.403c-0.096,0.155-0.143,0.731-0.143,1.729h-2.538v-1.509c0-0.813,0.076-1.393,0.23-1.741
			c0.308-0.716,1.269-1.075,2.884-1.075h5.247c1.616,0,2.578,0.356,2.885,1.069c0.154,0.347,0.23,0.886,0.23,1.617V31.898z
			 M58.542,27.404h-5.022c-0.939,0-1.407,0.344-1.407,1.032v2.924c0,0.688,0.498,1.033,1.491,1.033h3.446
			c0.994,0,1.492-0.345,1.492-1.033V27.404z"/>
		<path fill="#3C3C3B" d="M74.373,31.903c0,0.749-0.077,1.297-0.229,1.643c-0.309,0.691-1.27,1.038-2.886,1.038H66.04
			c-1.634,0-2.605-0.346-2.912-1.039c-0.155-0.346-0.231-0.896-0.231-1.646v-3.871c0-0.791,0.442-1.358,1.327-1.705
			c-0.884-0.347-1.327-0.944-1.327-1.791v-6.557h2.538v6.167c0,0.502,0.192,0.819,0.577,0.956c0.211,0.058,0.616,0.087,1.212,0.087
			h3.834c1.749,0,2.778,0.365,3.087,1.096c0.153,0.366,0.229,0.913,0.229,1.643V31.903z M71.835,31.384v-2.97
			c0-0.692-0.498-1.038-1.492-1.038h-3.445c-0.976,0-1.464,0.346-1.464,1.038v2.97c0,0.672,0.488,1.009,1.464,1.009h3.445
			C71.337,32.393,71.835,32.056,71.835,31.384z"/>
		<path fill="#3C3C3B" d="M87.665,31.787c0,0.808-0.077,1.384-0.229,1.73c-0.308,0.711-1.27,1.066-2.885,1.066h-5.218
			c-1.615,0-2.586-0.355-2.912-1.068c-0.154-0.347-0.23-0.886-0.23-1.617V17.975h2.537v13.379c0,0.692,0.479,1.039,1.437,1.039
			h3.157c0.937,0,1.492-0.133,1.665-0.398c0.095-0.152,0.143-0.72,0.143-1.707h2.537V31.787z"/>
		<path fill="#3C3C3B" d="M100.957,31.898c0,0.731-0.075,1.27-0.229,1.617c-0.307,0.713-1.269,1.068-2.883,1.068h-5.248
			c-1.616,0-2.576-0.355-2.884-1.066c-0.154-0.346-0.231-0.884-0.231-1.614v-3.98c0-0.769,0.085-1.316,0.259-1.643
			c0.23-0.423,0.766-0.683,1.609-0.779c0.268-0.039,0.901-0.057,1.898-0.057h5.173v-4.268c0-0.672-0.477-1.009-1.429-1.009H93.82
			c-0.934,0-1.486,0.134-1.658,0.403c-0.096,0.155-0.144,0.731-0.144,1.729h-2.537v-1.509c0-0.813,0.077-1.393,0.231-1.741
			c0.308-0.716,1.268-1.075,2.884-1.075h5.248c1.614,0,2.576,0.356,2.883,1.069c0.154,0.347,0.229,0.886,0.229,1.617V31.898z
			 M98.421,27.404h-5.024c-0.938,0-1.406,0.344-1.406,1.032v2.924c0,0.688,0.497,1.033,1.491,1.033h3.447
			c0.995,0,1.492-0.345,1.492-1.033V27.404z"/>
		<path fill="#3C3C3B" d="M114.25,31.903c0,0.749-0.077,1.297-0.23,1.643c-0.308,0.691-1.269,1.038-2.884,1.038h-5.219
			c-1.634,0-2.605-0.346-2.913-1.039c-0.155-0.346-0.23-0.896-0.23-1.646v-3.871c0-0.791,0.441-1.358,1.326-1.705
			c-0.885-0.347-1.326-0.944-1.326-1.791v-6.557h2.538v6.167c0,0.502,0.191,0.819,0.576,0.956c0.211,0.058,0.614,0.087,1.21,0.087
			h3.834c1.75,0,2.779,0.365,3.087,1.096c0.153,0.366,0.23,0.913,0.23,1.643V31.903z M111.713,31.384v-2.97
			c0-0.692-0.498-1.038-1.493-1.038h-3.445c-0.975,0-1.463,0.346-1.463,1.038v2.97c0,0.672,0.488,1.009,1.463,1.009h3.445
			C111.215,32.393,111.713,32.056,111.713,31.384z"/>
	</g>
	<g>
		<path fill="#3C3C3B" d="M47.786,41.517v3.991c0,0.733-0.077,1.283-0.229,1.648c-0.212,0.502-0.731,0.83-1.558,0.984
			c-0.365,0.077-1.019,0.116-1.961,0.116h-3.776c-0.942,0-1.413,0.346-1.413,1.038v6.142h-2.537v-6.557
			c0-0.847,0.44-1.444,1.325-1.791c-0.885-0.347-1.325-0.915-1.325-1.705v-3.87c0-0.751,0.077-1.299,0.229-1.646
			c0.308-0.692,1.269-1.041,2.885-1.041h5.247c1.615,0,2.575,0.348,2.884,1.042C47.709,40.216,47.786,40.765,47.786,41.517z
			 M45.25,45.02v-2.986c0-0.676-0.499-1.015-1.494-1.015h-3.444c-0.976,0-1.464,0.339-1.464,1.015v2.986
			c0,0.697,0.488,1.044,1.464,1.044h3.444C44.751,46.064,45.25,45.717,45.25,45.02z"/>
		<path fill="#3C3C3B" d="M61.079,55.436h-2.538v-7.209h-6.401v7.209h-2.538V41.514c0-0.732,0.077-1.271,0.23-1.618
			c0.308-0.712,1.268-1.069,2.884-1.069h5.276c1.615,0,2.576,0.357,2.884,1.069c0.135,0.347,0.202,0.886,0.202,1.618V55.436z
			 M58.542,46.036v-4.008c0-0.673-0.498-1.009-1.492-1.009h-3.445c-0.976,0-1.464,0.336-1.464,1.009v4.008H58.542z"/>
		<path fill="#3C3C3B" d="M74.371,52.75c0,0.731-0.067,1.271-0.202,1.618c-0.308,0.712-1.316,1.068-3.028,1.068h-8.246V38.827h8.218
			c1.69,0,2.691,0.328,2.998,0.982c0.173,0.366,0.26,0.925,0.26,1.675V52.75z M71.834,52.208V42.025
			c0-0.672-0.499-1.007-1.493-1.007h-4.908v12.226h4.994C71.366,53.244,71.834,52.899,71.834,52.208z"/>
		<path fill="#3C3C3B" d="M87.663,42.259v0.865h-2.537v-0.797c0.019-0.625-0.124-1.014-0.431-1.166
			c-0.192-0.095-0.651-0.142-1.377-0.142h-3.157c-0.957,0-1.436,0.339-1.436,1.015v2.986c0,0.483,0.191,0.793,0.577,0.928
			c0.211,0.079,0.615,0.116,1.21,0.116h3.26v2.191h-3.26c-0.595,0-0.999,0.029-1.21,0.086c-0.385,0.153-0.577,0.469-0.577,0.946
			v2.924c0,0.688,0.479,1.032,1.436,1.032h3.157c0.937,0,1.492-0.132,1.664-0.398c0.096-0.151,0.144-0.721,0.144-1.707h2.537v1.499
			c0,0.808-0.076,1.395-0.23,1.759c-0.307,0.692-1.269,1.038-2.883,1.038h-5.219c-1.614,0-2.584-0.347-2.913-1.04
			c-0.153-0.346-0.23-0.895-0.23-1.646v-3.871c0-0.385,0.125-0.751,0.375-1.097c0.25-0.347,0.557-0.569,0.922-0.665
			c-0.865-0.346-1.297-0.923-1.297-1.733v-3.87c0-0.751,0.077-1.299,0.23-1.646c0.328-0.713,1.336-1.059,3.028-1.041h4.326
			c1.748,0,2.825,0.154,3.229,0.461C87.443,39.654,87.663,40.644,87.663,42.259z"/>
		<path fill="#3C3C3B" d="M100.957,55.436h-2.538v-6.142c0-0.692-0.517-1.038-1.55-1.038h-4.852v7.18H89.48V41.514
			c0-0.771,0.087-1.338,0.26-1.705c0.327-0.655,1.289-0.982,2.883-0.982h5.19c1.616,0,2.577,0.328,2.884,0.982
			c0.173,0.366,0.26,0.934,0.26,1.705v3.87c0,0.79-0.443,1.358-1.327,1.705c0.883,0.346,1.327,0.944,1.327,1.791V55.436z
			 M98.419,45.02v-2.986c0-0.676-0.498-1.015-1.493-1.015h-3.444c-0.976,0-1.464,0.339-1.464,1.015v4.031h4.995
			C97.95,46.064,98.419,45.717,98.419,45.02z"/>
		<path fill="#3C3C3B" d="M114.249,48.879v3.871c0,0.731-0.077,1.271-0.23,1.618c-0.308,0.712-1.308,1.068-2.999,1.068h-8.246
			V38.827h8.246c1.691,0,2.691,0.348,2.999,1.041c0.153,0.347,0.23,0.886,0.23,1.617v3.899c0,0.79-0.384,1.368-1.153,1.733
			C113.864,47.464,114.249,48.051,114.249,48.879z M111.712,44.998v-2.97c0-0.673-0.499-1.009-1.493-1.009h-4.908v5.017h4.994
			C111.243,46.036,111.712,45.69,111.712,44.998z M111.712,52.207v-2.941c0-0.692-0.499-1.039-1.493-1.039h-4.908v5.018h4.994
			C111.243,53.244,111.712,52.899,111.712,52.207z"/>
		<path fill="#3C3C3B" d="M127.57,52.75c0,0.731-0.068,1.271-0.202,1.618c-0.308,0.712-1.269,1.068-2.885,1.068h-5.276
			c-1.614,0-2.576-0.356-2.883-1.068c-0.155-0.347-0.231-0.887-0.231-1.618V41.484c0-0.75,0.087-1.309,0.26-1.675
			c0.327-0.655,1.288-0.982,2.884-0.982h5.19c1.614,0,2.576,0.328,2.883,0.982c0.172,0.366,0.26,0.925,0.26,1.675V52.75z
			 M125.033,52.208V42.025c0-0.672-0.499-1.007-1.493-1.007h-3.445c-0.975,0-1.463,0.335-1.463,1.007v10.183
			c0,0.691,0.488,1.036,1.463,1.036h3.445C124.534,53.244,125.033,52.899,125.033,52.208z"/>
		<path fill="#3C3C3B" d="M141.035,55.436h-2.538v-6.142c0-0.692-0.516-1.038-1.55-1.038h-4.85v7.18h-2.538V41.514
			c0-0.771,0.087-1.338,0.26-1.705c0.327-0.655,1.287-0.982,2.883-0.982h5.19c1.616,0,2.576,0.328,2.883,0.982
			c0.174,0.366,0.26,0.934,0.26,1.705v3.87c0,0.79-0.442,1.358-1.325,1.705c0.883,0.346,1.325,0.944,1.325,1.791V55.436z
			 M138.497,45.02v-2.986c0-0.676-0.497-1.015-1.492-1.015h-3.445c-0.975,0-1.462,0.339-1.462,1.015v4.031h4.995
			C138.03,46.064,138.497,45.717,138.497,45.02z"/>
		<path fill="#3C3C3B" d="M154.328,55.436h-2.51l-6.429-11.564v11.564h-2.537V38.827h2.537l6.429,11.218l-0.028-11.218h2.537V55.436
			z"/>
	</g>
</g>
</svg>
